HIERARCHY
ROOT Hips
{
	OFFSET 0.00 0.00 0.00
	CHANNELS 6 Xposition Yposition Zposition Xrotation Yrotation Zrotation
	JOINT RightUpLeg
	{
		OFFSET -3.76699 0.00000 0.00000
		CHANNELS 3 Xrotation Yrotation Zrotation
		JOINT RightLeg
		{
			OFFSET 0.00000 -18.01768 0.00000
			CHANNELS 3 Xrotation Yrotation Zrotation
			JOINT RightFoot
			{
				OFFSET 0.00000 -16.88108 0.00000
				CHANNELS 3 Xrotation Yrotation Zrotation
				JOINT RightToeBase
				{
					OFFSET 0.00000 -1.49359 5.57418
					CHANNELS 3 Xrotation Yrotation Zrotation
					End Site
					{
						OFFSET 0.00000 0.00000 2.95275
					}
				}
			}
		}
	}
	JOINT LeftUpLeg
	{
		OFFSET 3.76699 0.00000 0.00000
		CHANNELS 3 Xrotation Yrotation Zrotation
		JOINT LeftLeg
		{
			OFFSET 0.00000 -18.01768 0.00000
			CHANNELS 3 Xrotation Yrotation Zrotation
			JOINT LeftFoot
			{
				OFFSET 0.00000 -16.88108 0.00000
				CHANNELS 3 Xrotation Yrotation Zrotation
				JOINT LeftToeBase
				{
					OFFSET 0.00000 -1.49359 5.57418
					CHANNELS 3 Xrotation Yrotation Zrotation
					End Site
					{
						OFFSET 0.00000 0.00000 2.95275
					}
				}
			}
		}
	}
	JOINT Spine
	{
		OFFSET 0.00000 7.77970 0.00000
		CHANNELS 3 Xrotation Yrotation Zrotation
		JOINT RightShoulder
		{
			OFFSET 0.00000 10.94176 0.00000
			CHANNELS 3 Xrotation Yrotation Zrotation
			JOINT RightArm
			{
				OFFSET -7.70894 0.00000 0.00000
				CHANNELS 3 Xrotation Yrotation Zrotation
				JOINT RightForeArm
				{
					OFFSET -11.52135 0.00000 0.00000
					CHANNELS 3 Yrotation Zrotation Xrotation
					JOINT RightHand
					{
						OFFSET -10.17590 0.00000 0.00000
						CHANNELS 3 Xrotation Yrotation Zrotation
						End Site
						{
							OFFSET -3.93700 0.00000 0.00000
						}
						JOINT RightHandThumb1
						{
							OFFSET 0.00000 0.00000 0.00000
							CHANNELS 3 Xrotation Zrotation Yrotation
							End Site
							{
								OFFSET 0.00000 0.00000 3.93700
							}
						}
					}
				}
			}
		}
		JOINT LeftShoulder
		{
			OFFSET 0.00000 10.94176 0.00000
			CHANNELS 3 Xrotation Yrotation Zrotation
			JOINT LeftArm
			{
				OFFSET 7.70894 0.00000 0.00000
				CHANNELS 3 Xrotation Yrotation Zrotation
				JOINT LeftForeArm
				{
					OFFSET 11.52135 0.00000 0.00000
					CHANNELS 3 Yrotation Zrotation Xrotation
					JOINT LeftHand
					{
						OFFSET 10.17590 0.00000 0.00000
						CHANNELS 3 Xrotation Yrotation Zrotation
						End Site
						{
							OFFSET 3.93700 0.00000 0.00000
						}
						JOINT LeftHandThumb1
						{
							OFFSET 0.00000 0.00000 0.00000
							CHANNELS 3 Xrotation Zrotation Yrotation
							End Site
							{
								OFFSET 0.00000 0.00000 3.93700
							}
						}
					}
				}
			}
		}
		JOINT Head
		{
			OFFSET 0.00000 16.64604 0.00000
			CHANNELS 3 Xrotation Yrotation Zrotation
			End Site
			{
				OFFSET 0.00000 4.52755 0.00000
			}
		}
	}
}
MOTION
Frames: 11
Frame Time: 0.008333
 3.9743 37.4669 3.5857 -9.7962 -0.0846 -2.9379 -2.4543 -2.7699 0.9239 27.6960 -0.0000 0.0000 -14.2043 -26.3193 7.8759 6.7896 0.0000 -0.0000 11.4301 -18.8275 -2.7793 4.3771 -0.0000 0.0000 -10.0836 29.3195 -3.5532 10.5378 0.0000 0.0000 20.0284 -12.7948 -3.2158 29.5420 -5.6568 -7.4955 -10.3848 25.5150 69.6419 44.9482 0.0000 -3.7182 -0.0494 -2.3187 -1.2211 32.8623 0.0000 -24.3270 28.6666 19.4547 6.1775 -65.8624 -6.2419 -68.3990 -83.0874 -0.0000 18.1503 -8.3220 26.9765 17.8724 33.1476 -0.0000 26.2537 8.2412 15.8747 3.8444
 3.9916 37.4793 3.5894 -9.7672 0.0286 -3.1466 -2.5003 -2.4760 1.1786 27.9920 0.0000 0.0000 -14.2417 -26.3315 7.9011 6.6748 -0.0000 0.0000 11.5412 -18.6433 -2.5270 4.2651 -0.0000 0.0000 -9.9953 29.0414 -3.5827 10.4808 -0.0000 -0.0000 19.9744 -12.7901 -2.9788 29.5815 -5.6922 -7.4627 -10.3110 25.6543 69.6787 44.7780 0.0000 -3.8334 -0.0477 -2.2289 -1.2252 32.8623 0.0000 -24.3270 28.7242 19.4559 6.0759 -65.8412 -6.3962 -68.6156 -83.2055 -0.0000 18.1996 -8.2123 26.9289 17.6756 33.1476 -0.0000 26.2537 8.3435 15.9313 3.9426
 4.0037 37.4901 3.5899 -9.7137 0.1176 -3.3333 -2.5913 -2.1572 1.4297 28.3246 0.0000 -0.0000 -14.3313 -26.3533 7.7290 6.6688 -0.0000 -0.0000 11.5836 -18.5757 -2.3239 4.2055 0.0000 0.0000 -9.9504 28.9192 -3.5203 10.3853 -0.0000 0.0000 19.8702 -12.7438 -2.8206 29.6784 -5.7085 -7.3834 -10.2551 25.7836 69.6959 44.6600 0.0000 -3.7878 -0.0419 -2.3282 -1.0305 32.8623 0.0000 -24.3270 28.8077 19.4547 6.0383 -65.8227 -6.5677 -68.8169 -83.3171 -0.0000 18.2698 -8.1523 26.7530 17.6530 33.1476 -0.0000 26.2537 8.4121 15.8096 4.0934
 4.0169 37.5008 3.5894 -9.6450 0.1952 -3.5244 -2.7105 -1.8163 1.6893 28.6670 0.0000 0.0000 -14.4557 -26.4935 7.7479 6.7809 -0.0000 0.0000 11.5985 -18.5655 -2.1279 4.1604 0.0000 0.0000 -9.9335 28.8644 -3.4239 10.3664 -0.0000 -0.0000 19.7579 -12.6950 -2.6416 29.7235 -5.6987 -7.3147 -10.1572 25.9021 69.7084 44.5414 0.0000 -3.6957 -0.0492 -2.2147 -1.2721 32.8623 0.0000 -24.3270 28.8239 19.4346 5.9882 -65.7296 -6.7079 -68.9952 -83.4486 -0.0000 18.3162 -8.0106 26.5384 17.4831 33.1476 -0.0000 26.2537 8.4752 15.6806 4.1948
 4.0330 37.5103 3.5901 -9.5862 0.2563 -3.7134 -2.8403 -1.4981 1.9366 29.0554 -0.0000 0.0000 -14.5451 -26.5919 7.5254 6.7825 -0.0000 0.0000 11.6126 -18.5045 -1.9434 4.1375 -0.0000 0.0000 -9.9278 28.7819 -3.3250 10.2930 0.0000 -0.0000 19.6772 -12.6473 -2.4293 29.7259 -5.7288 -7.2803 -10.0631 26.0651 69.7246 44.4516 0.0000 -3.7038 -0.0454 -2.2498 -1.1552 32.8623 0.0000 -24.3270 28.8532 19.4299 5.8890 -65.6549 -6.8689 -69.1608 -83.5804 -0.0000 18.3509 -7.9053 26.3550 17.3690 33.1476 -0.0000 26.2537 8.4750 15.8050 4.2896
 4.0475 37.5194 3.5904 -9.5329 0.2914 -3.8886 -2.9893 -1.1617 2.1748 29.4846 -0.0000 -0.0000 -14.6140 -26.7318 7.3356 6.7258 -0.0000 0.0000 11.6146 -18.4063 -1.7760 4.1360 0.0000 -0.0000 -9.9137 28.6747 -3.2747 10.2224 -0.0000 -0.0000 19.5861 -12.5647 -2.2768 29.7623 -5.7057 -7.2163 -9.9800 26.1587 69.7427 44.3923 0.0000 -3.7672 -0.0438 -2.2382 -1.1208 32.8623 0.0000 -24.3270 28.8920 19.4281 5.8393 -65.5836 -7.0179 -69.3409 -83.7301 -0.0000 18.4610 -7.8569 26.2500 17.3280 33.1476 -0.0000 26.2537 8.4824 15.6826 4.4115
 4.0641 37.5289 3.5946 -9.4941 0.2999 -4.0685 -3.1295 -0.8561 2.4143 29.9041 -0.0000 -0.0000 -14.6910 -26.9209 7.1619 6.6755 -0.0000 0.0000 11.6505 -18.2838 -1.6005 4.1117 0.0000 -0.0000 -9.8837 28.5388 -3.2652 10.0943 -0.0000 0.0000 19.5175 -12.4758 -2.0718 29.7995 -5.6927 -7.2127 -9.9326 26.2154 69.8127 44.3534 0.0000 -3.8168 -0.0324 -2.1746 -0.8533 32.8623 0.0000 -24.3270 28.9549 19.4011 5.7122 -65.5032 -7.1754 -69.4489 -83.8852 -0.0000 18.5293 -7.8102 26.1286 17.2998 33.1476 -0.0000 26.2537 8.4739 15.6557 4.4206
 4.0844 37.5355 3.5942 -9.4394 0.2719 -4.2150 -3.3355 -0.5358 2.6158 30.4149 0.0000 0.0000 -14.8033 -27.1379 7.0914 6.7271 0.0000 0.0000 11.6103 -18.1047 -1.4896 4.1598 0.0000 0.0000 -9.8875 28.3823 -3.2409 10.0829 0.0000 0.0000 19.4323 -12.3592 -1.9153 29.8508 -5.7074 -7.1950 -9.9568 26.2912 69.8823 44.3030 0.0000 -3.7341 -0.0364 -2.0982 -0.9949 32.8623 0.0000 -24.3270 28.9809 19.3719 5.6285 -65.3891 -7.2655 -69.5613 -84.1103 -0.0000 18.4723 -7.7216 26.2661 17.0344 33.1476 -0.0000 26.2537 8.4311 15.6519 4.4531
 4.1042 37.5425 3.5933 -9.4131 0.2298 -4.3699 -3.5344 -0.2619 2.8250 30.9342 -0.0000 -0.0000 -14.8623 -27.2895 6.9200 6.5691 0.0000 -0.0000 11.6018 -18.0257 -1.3803 4.1976 -0.0000 -0.0000 -9.8987 28.3538 -3.1315 9.9859 0.0000 -0.0000 19.3962 -12.2488 -1.7436 29.8495 -5.6810 -7.2115 -9.9453 26.3521 69.9652 44.2766 0.0000 -3.7307 -0.0349 -2.0489 -0.9747 32.8623 0.0000 -24.3270 29.0022 19.3624 5.5523 -65.2482 -7.3721 -69.6579 -84.3081 -0.0000 18.5633 -7.6498 26.0947 16.9805 33.1476 -0.0000 26.2537 8.3423 15.7558 4.5177
 4.1217 37.5499 3.5922 -9.3692 0.1678 -4.5117 -3.7815 -0.0765 3.0141 31.5221 0.0000 0.0000 -14.9942 -27.3990 6.7771 6.7138 0.0000 0.0000 11.6431 -18.3484 -1.2884 4.0770 0.0000 0.0000 -9.8801 28.7705 -2.9172 9.9103 0.0000 0.0000 19.3293 -12.1478 -1.5925 29.8542 -5.6439 -7.2297 -9.9480 26.4684 70.0533 44.2562 0.0000 -3.8346 -0.0264 -2.1109 -0.7162 32.8623 0.0000 -24.3270 29.1039 19.3736 5.4119 -65.1859 -7.5163 -69.7168 -84.4859 -0.0000 18.7497 -7.6626 26.1311 16.9868 33.1476 -0.0000 26.2537 8.2777 15.7853 4.5056
 4.1402 37.5561 3.5894 -9.3318 0.0827 -4.6534 -4.0527 0.1924 3.2122 32.1624 0.0000 0.0000 -15.0328 -27.4615 6.5435 6.4658 -0.0000 0.0000 11.6123 -18.2777 -1.1992 4.1203 -0.0000 0.0000 -9.8964 28.7926 -2.8484 9.8413 -0.0000 0.0000 19.2721 -12.0147 -1.4585 29.8632 -5.6058 -7.2349 -9.9739 26.5473 70.1217 44.2254 0.0000 -3.7621 -0.0280 -2.0454 -0.7836 32.8623 0.0000 -24.3270 29.1858 19.3628 5.3504 -65.0771 -7.5621 -69.7923 -84.7459 -0.0000 18.8199 -7.6476 26.2191 16.9051 33.1476 -0.0000 26.2537 8.1822 15.6883 4.4977
